<svg width="50" height="50" viewBox="0 0 50 50" fill="none" xmlns="http://www.w3.org/2000/svg">
<g clip-path="url(#clip0_600_363)">
<path d="M33.3337 33.3333C33.3337 33.8859 33.1142 34.4158 32.7235 34.8065C32.3328 35.1972 31.8029 35.4167 31.2503 35.4167H27.0837V39.5833C27.0837 40.1359 26.8642 40.6658 26.4735 41.0565C26.0828 41.4472 25.5529 41.6667 25.0003 41.6667C24.4478 41.6667 23.9179 41.4472 23.5272 41.0565C23.1365 40.6658 22.917 40.1359 22.917 39.5833V35.4167H18.7503C18.1978 35.4167 17.6679 35.1972 17.2772 34.8065C16.8865 34.4158 16.667 33.8859 16.667 33.3333C16.667 32.7808 16.8865 32.2509 17.2772 31.8602C17.6679 31.4695 18.1978 31.25 18.7503 31.25H22.917V27.0833C22.917 26.5308 23.1365 26.0009 23.5272 25.6102C23.9179 25.2195 24.4478 25 25.0003 25C25.5529 25 26.0828 25.2195 26.4735 25.6102C26.8642 26.0009 27.0837 26.5308 27.0837 27.0833V31.25H31.2503C31.8029 31.25 32.3328 31.4695 32.7235 31.8602C33.1142 32.2509 33.3337 32.7808 33.3337 33.3333ZM45.8337 21.8437V39.5833C45.8303 42.345 44.7318 44.9926 42.779 46.9454C40.8262 48.8982 38.1786 49.9967 35.417 50H14.5837C11.822 49.9967 9.1744 48.8982 7.22162 46.9454C5.26883 44.9926 4.1703 42.345 4.16699 39.5833V10.4167C4.1703 7.655 5.26883 5.0074 7.22162 3.05461C9.1744 1.10182 11.822 0.00329502 14.5837 -1.30171e-05H23.9899C25.9058 -0.00494411 27.8036 0.369961 29.5737 1.10303C31.3438 1.83609 32.951 2.91277 34.3024 4.27082L41.5607 11.5333C42.9196 12.8838 43.9969 14.4905 44.7304 16.2604C45.4638 18.0302 45.8388 19.928 45.8337 21.8437V21.8437ZM31.3566 7.21665C30.7009 6.58157 29.9648 6.03525 29.167 5.59165V14.5833C29.167 15.1359 29.3865 15.6658 29.7772 16.0565C30.1679 16.4472 30.6978 16.6667 31.2503 16.6667H40.242C39.7981 15.8691 39.2511 15.1336 38.6149 14.4792L31.3566 7.21665ZM41.667 21.8437C41.667 21.5 41.6003 21.1708 41.5691 20.8333H31.2503C29.5927 20.8333 28.003 20.1748 26.8309 19.0027C25.6588 17.8306 25.0003 16.2409 25.0003 14.5833V4.26457C24.6628 4.23332 24.3316 4.16665 23.9899 4.16665H14.5837C12.9261 4.16665 11.3363 4.82513 10.1642 5.99724C8.99214 7.16934 8.33366 8.75905 8.33366 10.4167V39.5833C8.33366 41.2409 8.99214 42.8306 10.1642 44.0027C11.3363 45.1748 12.9261 45.8333 14.5837 45.8333H35.417C37.0746 45.8333 38.6643 45.1748 39.8364 44.0027C41.0085 42.8306 41.667 41.2409 41.667 39.5833V21.8437Z" fill="#3EC290"/>
</g>
<defs>
<clipPath id="clip0_600_363">
<rect width="50" height="50" fill="white"/>
</clipPath>
</defs>
</svg>
