<svg width="116" height="19" viewBox="0 0 116 19" fill="none" xmlns="http://www.w3.org/2000/svg">
<path d="M6.968 18.336C4.888 18.336 3.24 17.76 2.024 16.608C0.808 15.44 0.2 13.776 0.2 11.616V7.584C0.2 5.424 0.808 3.768 2.024 2.616C3.24 1.448 4.888 0.863999 6.968 0.863999C9.032 0.863999 10.624 1.432 11.744 2.568C12.88 3.688 13.448 5.232 13.448 7.2V7.344H10.328V7.104C10.328 6.112 10.048 5.296 9.488 4.656C8.944 4.016 8.104 3.696 6.968 3.696C5.848 3.696 4.968 4.04 4.328 4.728C3.688 5.416 3.368 6.352 3.368 7.536V11.664C3.368 12.832 3.688 13.768 4.328 14.472C4.968 15.16 5.848 15.504 6.968 15.504C8.104 15.504 8.944 15.184 9.488 14.544C10.048 13.888 10.328 13.072 10.328 12.096V11.664H13.448V12C13.448 13.968 12.88 15.52 11.744 16.656C10.624 17.776 9.032 18.336 6.968 18.336ZM18.9813 18.336C18.1333 18.336 17.3733 18.192 16.7013 17.904C16.0293 17.6 15.4933 17.168 15.0933 16.608C14.7093 16.032 14.5173 15.336 14.5173 14.52C14.5173 13.704 14.7093 13.024 15.0933 12.48C15.4933 11.92 16.0373 11.504 16.7253 11.232C17.4293 10.944 18.2293 10.8 19.1253 10.8H22.3893V10.128C22.3893 9.568 22.2133 9.112 21.8613 8.76C21.5093 8.392 20.9493 8.208 20.1813 8.208C19.4293 8.208 18.8693 8.384 18.5013 8.736C18.1333 9.072 17.8933 9.512 17.7813 10.056L14.9973 9.12C15.1893 8.512 15.4933 7.96 15.9093 7.464C16.3413 6.952 16.9093 6.544 17.6133 6.24C18.3333 5.92 19.2053 5.76 20.2293 5.76C21.7973 5.76 23.0373 6.152 23.9493 6.936C24.8613 7.72 25.3173 8.856 25.3173 10.344V14.784C25.3173 15.264 25.5413 15.504 25.9893 15.504H26.9493V18H24.9333C24.3413 18 23.8533 17.856 23.4693 17.568C23.0853 17.28 22.8933 16.896 22.8933 16.416V16.392H22.4373C22.3733 16.584 22.2293 16.84 22.0053 17.16C21.7813 17.464 21.4293 17.736 20.9493 17.976C20.4693 18.216 19.8133 18.336 18.9813 18.336ZM19.5093 15.888C20.3573 15.888 21.0453 15.656 21.5733 15.192C22.1173 14.712 22.3893 14.08 22.3893 13.296V13.056H19.3413C18.7813 13.056 18.3413 13.176 18.0213 13.416C17.7013 13.656 17.5413 13.992 17.5413 14.424C17.5413 14.856 17.7093 15.208 18.0453 15.48C18.3813 15.752 18.8693 15.888 19.5093 15.888ZM32.0131 18C31.2291 18 30.5891 17.76 30.0931 17.28C29.6131 16.784 29.3731 16.128 29.3731 15.312V8.592H26.3971V6.096H29.3731V2.4H32.3971V6.096H35.6611V8.592H32.3971V14.784C32.3971 15.264 32.6211 15.504 33.0691 15.504H35.3731V18H32.0131ZM37.5584 18V1.2H40.5824V7.56H41.0144C41.1424 7.304 41.3424 7.048 41.6144 6.792C41.8864 6.536 42.2464 6.328 42.6944 6.168C43.1584 5.992 43.7424 5.904 44.4464 5.904C45.3744 5.904 46.1824 6.12 46.8704 6.552C47.5744 6.968 48.1184 7.552 48.5024 8.304C48.8864 9.04 49.0784 9.904 49.0784 10.896V18H46.0544V11.136C46.0544 10.24 45.8304 9.568 45.3824 9.12C44.9504 8.672 44.3264 8.448 43.5104 8.448C42.5824 8.448 41.8624 8.76 41.3504 9.384C40.8384 9.992 40.5824 10.848 40.5824 11.952V18H37.5584ZM55.2035 18.336C54.3555 18.336 53.5955 18.192 52.9235 17.904C52.2515 17.6 51.7155 17.168 51.3155 16.608C50.9315 16.032 50.7395 15.336 50.7395 14.52C50.7395 13.704 50.9315 13.024 51.3155 12.48C51.7155 11.92 52.2595 11.504 52.9475 11.232C53.6515 10.944 54.4515 10.8 55.3475 10.8H58.6115V10.128C58.6115 9.568 58.4355 9.112 58.0835 8.76C57.7315 8.392 57.1715 8.208 56.4035 8.208C55.6515 8.208 55.0915 8.384 54.7235 8.736C54.3555 9.072 54.1155 9.512 54.0035 10.056L51.2195 9.12C51.4115 8.512 51.7155 7.96 52.1315 7.464C52.5635 6.952 53.1315 6.544 53.8355 6.24C54.5555 5.92 55.4275 5.76 56.4515 5.76C58.0195 5.76 59.2595 6.152 60.1715 6.936C61.0835 7.72 61.5395 8.856 61.5395 10.344V14.784C61.5395 15.264 61.7635 15.504 62.2115 15.504H63.1715V18H61.1555C60.5635 18 60.0755 17.856 59.6915 17.568C59.3075 17.28 59.1155 16.896 59.1155 16.416V16.392H58.6595C58.5955 16.584 58.4515 16.84 58.2275 17.16C58.0035 17.464 57.6515 17.736 57.1715 17.976C56.6915 18.216 56.0355 18.336 55.2035 18.336ZM55.7315 15.888C56.5795 15.888 57.2675 15.656 57.7955 15.192C58.3395 14.712 58.6115 14.08 58.6115 13.296V13.056H55.5635C55.0035 13.056 54.5635 13.176 54.2435 13.416C53.9235 13.656 53.7635 13.992 53.7635 14.424C53.7635 14.856 53.9315 15.208 54.2675 15.48C54.6035 15.752 55.0915 15.888 55.7315 15.888ZM64.5425 18V6.096H67.5185V7.44H67.9505C68.1265 6.96 68.4145 6.608 68.8145 6.384C69.2305 6.16 69.7105 6.048 70.2545 6.048H71.6945V8.736H70.2065C69.4385 8.736 68.8065 8.944 68.3105 9.36C67.8145 9.76 67.5665 10.384 67.5665 11.232V18H64.5425ZM77.8809 18.336C76.3289 18.336 75.0569 18 74.0649 17.328C73.0729 16.656 72.4729 15.696 72.2649 14.448L75.0489 13.728C75.1609 14.288 75.3449 14.728 75.6009 15.048C75.8729 15.368 76.2009 15.6 76.5849 15.744C76.9849 15.872 77.4169 15.936 77.8809 15.936C78.5849 15.936 79.1049 15.816 79.4409 15.576C79.7769 15.32 79.9449 15.008 79.9449 14.64C79.9449 14.272 79.7849 13.992 79.4649 13.8C79.1449 13.592 78.6329 13.424 77.9289 13.296L77.2569 13.176C76.4249 13.016 75.6649 12.8 74.9769 12.528C74.2889 12.24 73.7369 11.848 73.3209 11.352C72.9049 10.856 72.6969 10.216 72.6969 9.432C72.6969 8.248 73.1289 7.344 73.9929 6.72C74.8569 6.08 75.9929 5.76 77.4009 5.76C78.7289 5.76 79.8329 6.056 80.7129 6.648C81.5929 7.24 82.1689 8.016 82.4409 8.976L79.6329 9.84C79.5049 9.232 79.2409 8.8 78.8409 8.544C78.4569 8.288 77.9769 8.16 77.4009 8.16C76.8249 8.16 76.3849 8.264 76.0809 8.472C75.7769 8.664 75.6249 8.936 75.6249 9.288C75.6249 9.672 75.7849 9.96 76.1049 10.152C76.4249 10.328 76.8569 10.464 77.4009 10.56L78.0729 10.68C78.9689 10.84 79.7769 11.056 80.4969 11.328C81.2329 11.584 81.8089 11.96 82.2249 12.456C82.6569 12.936 82.8729 13.592 82.8729 14.424C82.8729 15.672 82.4169 16.64 81.5049 17.328C80.6089 18 79.4009 18.336 77.8809 18.336ZM84.6828 18V6.096H87.7068V18H84.6828ZM86.1948 4.704C85.6508 4.704 85.1868 4.528 84.8028 4.176C84.4348 3.824 84.2508 3.36 84.2508 2.784C84.2508 2.208 84.4348 1.744 84.8028 1.392C85.1868 1.04 85.6508 0.863999 86.1948 0.863999C86.7548 0.863999 87.2188 1.04 87.5868 1.392C87.9548 1.744 88.1388 2.208 88.1388 2.784C88.1388 3.36 87.9548 3.824 87.5868 4.176C87.2188 4.528 86.7548 4.704 86.1948 4.704ZM95.1618 18.336C93.6098 18.336 92.3378 18 91.3458 17.328C90.3538 16.656 89.7538 15.696 89.5458 14.448L92.3298 13.728C92.4418 14.288 92.6258 14.728 92.8818 15.048C93.1538 15.368 93.4818 15.6 93.8658 15.744C94.2658 15.872 94.6978 15.936 95.1618 15.936C95.8658 15.936 96.3858 15.816 96.7218 15.576C97.0578 15.32 97.2258 15.008 97.2258 14.64C97.2258 14.272 97.0658 13.992 96.7458 13.8C96.4258 13.592 95.9138 13.424 95.2098 13.296L94.5378 13.176C93.7058 13.016 92.9458 12.8 92.2578 12.528C91.5698 12.24 91.0178 11.848 90.6018 11.352C90.1858 10.856 89.9778 10.216 89.9778 9.432C89.9778 8.248 90.4098 7.344 91.2738 6.72C92.1378 6.08 93.2738 5.76 94.6818 5.76C96.0098 5.76 97.1138 6.056 97.9938 6.648C98.8738 7.24 99.4498 8.016 99.7218 8.976L96.9138 9.84C96.7858 9.232 96.5218 8.8 96.1218 8.544C95.7378 8.288 95.2578 8.16 94.6818 8.16C94.1058 8.16 93.6658 8.264 93.3618 8.472C93.0578 8.664 92.9058 8.936 92.9058 9.288C92.9058 9.672 93.0658 9.96 93.3858 10.152C93.7058 10.328 94.1378 10.464 94.6818 10.56L95.3538 10.68C96.2498 10.84 97.0578 11.056 97.7778 11.328C98.5138 11.584 99.0898 11.96 99.5058 12.456C99.9378 12.936 100.154 13.592 100.154 14.424C100.154 15.672 99.6978 16.64 98.7858 17.328C97.8898 18 96.6818 18.336 95.1618 18.336Z" fill="white"/>
<path d="M100.812 18L105.732 9.528L100.86 1.2H104.46L107.796 7.272H108.228L111.564 1.2H115.164L110.292 9.528L115.212 18H111.612L108.228 11.784H107.796L104.412 18H100.812Z" fill="#3EC290"/>
</svg>
