<svg width="14" height="14" viewBox="0 0 14 14" fill="none" xmlns="http://www.w3.org/2000/svg">
<g id="fi-rr-search" clip-path="url(#clip0_270_86)">
<path id="Vector" d="M13.8287 13.0046L10.3468 9.5227C11.2957 8.36221 11.7622 6.88141 11.6499 5.38661C11.5376 3.8918 10.855 2.49734 9.74339 1.49166C8.63177 0.485992 7.17614 -0.0539518 5.67759 -0.0164832C4.17903 0.0209854 2.75221 0.633 1.69224 1.69297C0.632267 2.75294 0.0202529 4.17976 -0.0172156 5.67832C-0.0546842 7.17687 0.48526 8.6325 1.49093 9.74412C2.49661 10.8557 3.89106 11.5383 5.38587 11.6506C6.88068 11.7629 8.36148 11.2964 9.52196 10.3475L13.0039 13.8294C13.1139 13.9357 13.2612 13.9945 13.4142 13.9932C13.5671 13.9918 13.7135 13.9305 13.8216 13.8223C13.9298 13.7142 13.9911 13.5679 13.9924 13.4149C13.9938 13.262 13.935 13.1146 13.8287 13.0046ZM5.83296 10.5004C4.90998 10.5004 4.00773 10.2267 3.2403 9.71389C2.47287 9.20111 1.87473 8.47227 1.52152 7.61955C1.16832 6.76683 1.0759 5.82852 1.25596 4.92327C1.43603 4.01803 1.88049 3.18651 2.53313 2.53386C3.18578 1.88122 4.0173 1.43676 4.92254 1.2567C5.82779 1.07663 6.7661 1.16905 7.61882 1.52226C8.47154 1.87547 9.20037 2.4736 9.71315 3.24103C10.2259 4.00846 10.4996 4.91072 10.4996 5.83369C10.4982 7.07095 10.0061 8.25712 9.13126 9.13199C8.25639 10.0069 7.07021 10.499 5.83296 10.5004Z" fill="white" fill-opacity="0.5"/>
</g>
<defs>
<clipPath id="clip0_270_86">
<rect width="14" height="14" fill="white"/>
</clipPath>
</defs>
</svg>
