<svg width="16" height="16" viewBox="0 0 16 16" fill="none" xmlns="http://www.w3.org/2000/svg">
<g id="Forum icon" clip-path="url(#clip0_234_89)">
<path id="Vector" d="M12.6667 8.66675H3.33333V6.66675H12.6667V8.66675ZM10 10.0001H3.33333V12.0001H10V10.0001ZM16 3.00008V15.3334H0V3.00008C0 2.38124 0.245833 1.78775 0.683417 1.35017C1.121 0.912581 1.71449 0.666748 2.33333 0.666748H13.6667C14.2855 0.666748 14.879 0.912581 15.3166 1.35017C15.7542 1.78775 16 2.38124 16 3.00008ZM5.33333 3.00008C5.33333 3.19786 5.39198 3.3912 5.50186 3.55565C5.61174 3.7201 5.76792 3.84827 5.95065 3.92396C6.13338 3.99965 6.33444 4.01945 6.52842 3.98087C6.7224 3.94228 6.90059 3.84704 7.04044 3.70719C7.18029 3.56734 7.27553 3.38915 7.31412 3.19517C7.3527 3.00119 7.3329 2.80012 7.25721 2.6174C7.18153 2.43467 7.05335 2.27849 6.8889 2.16861C6.72445 2.05873 6.53112 2.00008 6.33333 2.00008C6.06812 2.00008 5.81376 2.10544 5.62623 2.29297C5.43869 2.48051 5.33333 2.73486 5.33333 3.00008ZM3 4.00008C3.19778 4.00008 3.39112 3.94143 3.55557 3.83155C3.72002 3.72167 3.84819 3.56549 3.92388 3.38276C3.99957 3.20004 4.01937 2.99897 3.98079 2.80499C3.9422 2.61101 3.84696 2.43283 3.70711 2.29297C3.56725 2.15312 3.38907 2.05788 3.19509 2.0193C3.00111 1.98071 2.80004 2.00051 2.61732 2.0762C2.43459 2.15189 2.27841 2.28006 2.16853 2.44451C2.05865 2.60896 2 2.8023 2 3.00008C2 3.2653 2.10536 3.51965 2.29289 3.70719C2.48043 3.89472 2.73478 4.00008 3 4.00008ZM14 5.33342H2V13.3334H14V5.33342Z" fill="white"/>
</g>
<defs>
<clipPath id="clip0_234_89">
<rect width="16" height="16" fill="white"/>
</clipPath>
</defs>
</svg>
