<svg width="16" height="16" viewBox="0 0 16 16" fill="#fff" xmlns="http://www.w3.org/2000/svg">
<g id="Library icon" clip-path="url(#clip0_234_86)">
<path id="Vector" d="M5.3335 6V4H10.6668V6H5.3335ZM14.5428 15.9573L12.8668 14.2773C12.395 14.5299 11.8687 14.6636 11.3335 14.6667C10.6742 14.6667 10.0298 14.4712 9.4816 14.1049C8.93343 13.7386 8.50619 13.218 8.2539 12.6089C8.00161 11.9999 7.93559 11.3296 8.06421 10.683C8.19283 10.0364 8.5103 9.44249 8.97647 8.97631C9.44265 8.51014 10.0366 8.19267 10.6832 8.06405C11.3298 7.93543 12 8.00144 12.6091 8.25373C13.2182 8.50603 13.7388 8.93327 14.1051 9.48143C14.4713 10.0296 14.6668 10.6741 14.6668 11.3333C14.6637 11.8685 14.5301 12.3948 14.2775 12.8667L15.9575 14.546L14.5428 15.9573ZM12.6668 11.3333C12.6668 11.0696 12.5886 10.8118 12.4421 10.5926C12.2956 10.3733 12.0874 10.2024 11.8437 10.1015C11.6001 10.0006 11.332 9.97417 11.0734 10.0256C10.8147 10.0771 10.5772 10.2041 10.3907 10.3905C10.2042 10.577 10.0772 10.8146 10.0258 11.0732C9.97434 11.3319 10.0007 11.5999 10.1017 11.8436C10.2026 12.0872 10.3735 12.2955 10.5927 12.442C10.812 12.5885 11.0698 12.6667 11.3335 12.6667C11.6871 12.6667 12.0263 12.5262 12.2763 12.2761C12.5264 12.0261 12.6668 11.687 12.6668 11.3333ZM6.7195 14H3.66683C3.57842 14 3.49364 13.9649 3.43113 13.9024C3.36862 13.8399 3.3335 13.7551 3.3335 13.6667V2.33333C3.3335 2.24493 3.36862 2.16014 3.43113 2.09763C3.49364 2.03512 3.57842 2 3.66683 2H12.6668V6.17467C13.3969 6.36242 14.0786 6.70329 14.6668 7.17467V0H3.66683C3.04799 0 2.4545 0.245833 2.01691 0.683417C1.57933 1.121 1.3335 1.71449 1.3335 2.33333V13.6667C1.3335 14.2855 1.57933 14.879 2.01691 15.3166C2.4545 15.7542 3.04799 16 3.66683 16H8.7535C7.90717 15.5295 7.20424 14.8383 6.7195 14Z" fill="white"/>
</g>
<defs>
<clipPath id="clip0_234_86">
<rect width="16" height="16" fill="white"/>
</clipPath>
</defs>
</svg>
