<svg width="16" height="16" viewBox="0 0 16 16" fill="none" xmlns="http://www.w3.org/2000/svg">
<g id="My materials icon">
<path id="Vector" d="M6.09683 15.9999C4.91085 16.0002 3.7514 15.6489 2.76513 14.9902C1.77886 14.3315 1.01007 13.3952 0.555999 12.2996C0.101924 11.204 -0.0170398 9.99829 0.214153 8.83505C0.445346 7.67182 1.01631 6.60328 1.85483 5.76456L6.35083 1.26656C7.17002 0.48754 8.2612 0.0594776 9.39157 0.073708C10.5219 0.0879384 11.602 0.543334 12.4013 1.34274C13.2006 2.14214 13.6559 3.22225 13.67 4.35262C13.6841 5.48299 13.2559 6.57413 12.4768 7.39323L7.98217 11.8886C7.47923 12.3743 6.80562 12.6431 6.10643 12.637C5.40724 12.631 4.73841 12.3505 4.24398 11.8561C3.74956 11.3617 3.46911 10.6928 3.46304 9.99363C3.45696 9.29444 3.72574 8.62084 4.2115 8.1179L8.4715 3.85856L9.88483 5.27256L5.6255 9.53323C5.56183 9.59473 5.51104 9.66829 5.4761 9.74963C5.44116 9.83096 5.42277 9.91844 5.422 10.007C5.42123 10.0955 5.4381 10.1833 5.47162 10.2652C5.50514 10.3471 5.55464 10.4216 5.61724 10.4842C5.67983 10.5468 5.75427 10.5963 5.8362 10.6298C5.91813 10.6633 6.00591 10.6802 6.09443 10.6794C6.18295 10.6786 6.27043 10.6602 6.35177 10.6253C6.43311 10.5904 6.50667 10.5396 6.56817 10.4759L11.0668 5.9819C11.2897 5.76665 11.4674 5.50918 11.5897 5.22451C11.712 4.93983 11.7764 4.63365 11.7791 4.32383C11.7818 4.01402 11.7227 3.70676 11.6054 3.42001C11.4881 3.13325 11.3148 2.87273 11.0958 2.65364C10.8767 2.43456 10.6162 2.2613 10.3294 2.14398C10.0426 2.02666 9.73538 1.96762 9.42556 1.97031C9.11574 1.97301 8.80957 2.03737 8.52489 2.15966C8.24021 2.28195 7.98274 2.45971 7.7675 2.68256L3.26683 7.1779C2.5382 7.93231 2.13502 8.94271 2.14414 9.9915C2.15325 11.0403 2.57393 12.0435 3.31556 12.7852C4.05719 13.5268 5.06044 13.9475 6.10923 13.9566C7.15802 13.9657 8.16842 13.5625 8.92283 12.8339L13.1822 8.5739L14.6002 9.9879L10.3402 14.2479C9.78308 14.805 9.12145 15.2465 8.39326 15.5472C7.66506 15.8478 6.88465 16.0017 6.09683 15.9999Z" fill="white"/>
</g>
</svg>
