<svg width="16" height="16" viewBox="0 0 16 16" fill="none" xmlns="http://www.w3.org/2000/svg">
<g id="Pricing icon" clip-path="url(#clip0_234_96)">
<path id="Vector" d="M13.3336 5.33333V4.87533C13.3323 3.93632 12.9588 3.03611 12.2948 2.37212C11.6308 1.70814 10.7306 1.33457 9.79158 1.33333H9.00024V0H7.00024V1.33333H6.20891C5.35856 1.33207 4.53614 1.63676 3.89188 2.19176C3.24762 2.74675 2.82452 3.515 2.69988 4.35617C2.57525 5.19733 2.75738 6.05526 3.21302 6.77324C3.66867 7.49121 4.3674 8.0213 5.18157 8.26667L7.00024 8.764V12.6667H6.20891C5.80011 12.6661 5.4082 12.5035 5.11913 12.2144C4.83007 11.9254 4.66744 11.5335 4.66691 11.1247V10.6667H2.66691V11.1247C2.66814 12.0637 3.04171 12.9639 3.7057 13.6279C4.36969 14.2919 5.26989 14.6654 6.20891 14.6667H7.00024V16H9.00024V14.6667H9.79158C10.6419 14.6679 11.4643 14.3632 12.1086 13.8082C12.7529 13.2532 13.176 12.485 13.3006 11.6438C13.4252 10.8027 13.2431 9.94474 12.7875 9.22676C12.3318 8.50879 11.6331 7.9787 10.8189 7.73333L9.00024 7.23733V3.33333H9.79158C10.2004 3.33386 10.5923 3.49649 10.8813 3.78556C11.1704 4.07463 11.333 4.46653 11.3336 4.87533V5.33333H13.3336ZM10.2549 9.65267C10.6066 9.7635 10.907 9.99664 11.1016 10.3099C11.2962 10.6231 11.3722 10.9956 11.3157 11.36C11.2593 11.7245 11.0742 12.0566 10.794 12.2963C10.5138 12.536 10.157 12.6674 9.78824 12.6667H9.00024V9.31L10.2549 9.65267ZM7.00024 6.69L5.74557 6.34733C5.39415 6.23659 5.09397 6.00371 4.89935 5.69085C4.70473 5.37798 4.62851 5.00579 4.6845 4.6416C4.74048 4.27742 4.92497 3.9453 5.20458 3.70534C5.48419 3.46538 5.84045 3.33342 6.20891 3.33333H7.00024V6.69Z" fill="white"/>
</g>
<defs>
<clipPath id="clip0_234_96">
<rect width="16" height="16" fill="white"/>
</clipPath>
</defs>
</svg>
