<svg width="16" height="16" viewBox="0 0 16 16" fill="none" xmlns="http://www.w3.org/2000/svg">
<g id="Purchases icon" clip-path="url(#clip0_234_93)">
<path id="Vector" d="M4.66683 16.0004C5.40321 16.0004 6.00016 15.4034 6.00016 14.6671C6.00016 13.9307 5.40321 13.3337 4.66683 13.3337C3.93045 13.3337 3.3335 13.9307 3.3335 14.6671C3.3335 15.4034 3.93045 16.0004 4.66683 16.0004Z" fill="white"/>
<path id="Vector_2" d="M11.3333 16.0004C12.0697 16.0004 12.6667 15.4034 12.6667 14.6671C12.6667 13.9307 12.0697 13.3337 11.3333 13.3337C10.597 13.3337 10 13.9307 10 14.6671C10 15.4034 10.597 16.0004 11.3333 16.0004Z" fill="white"/>
<path id="Vector_3" d="M3.76933 3.33333L3.594 1.95867C3.53033 1.41913 3.27092 0.921704 2.86493 0.560691C2.45895 0.199679 1.93461 0.000174584 1.39133 0L0 0V2H1.39133C1.44587 2.00058 1.49826 2.02135 1.53839 2.05828C1.57853 2.09521 1.60356 2.1457 1.60867 2.2L2.60867 10.0393C2.67174 10.5793 2.93092 11.0773 3.33698 11.4387C3.74304 11.8002 4.26771 11.9999 4.81133 12H13.6L15.9827 3.33333H3.76933ZM12.0747 10H4.81133C4.75682 9.99955 4.70443 9.97882 4.66438 9.94184C4.62432 9.90487 4.59947 9.8543 4.59467 9.8L4.02467 5.33333H13.358L12.0747 10Z" fill="white"/>
</g>
<defs>
<clipPath id="clip0_234_93">
<rect width="16" height="16" fill="white"/>
</clipPath>
</defs>
</svg>
