<svg width="14" height="14" viewBox="0 0 14 14" fill="none" xmlns="http://www.w3.org/2000/svg">
<g clip-path="url(#clip0_219_226)">
<path d="M13.829 13.0049L10.347 9.52294C11.2959 8.36245 11.7624 6.88166 11.6501 5.38685C11.5378 3.89204 10.8552 2.49758 9.74363 1.49191C8.63202 0.486236 7.17638 -0.0537076 5.67783 -0.0162391C4.17928 0.0212295 2.75245 0.633244 1.69248 1.69321C0.632511 2.75318 0.0204971 4.18001 -0.0169715 5.67856C-0.05444 7.17712 0.485504 8.63275 1.49118 9.74436C2.49685 10.856 3.89131 11.5385 5.38612 11.6508C6.88093 11.7632 8.36172 11.2966 9.52221 10.3478L13.0041 13.8297C13.1141 13.9359 13.2615 13.9947 13.4144 13.9934C13.5674 13.9921 13.7137 13.9307 13.8219 13.8226C13.93 13.7144 13.9914 13.5681 13.9927 13.4152C13.994 13.2622 13.9352 13.1149 13.829 13.0049ZM5.83321 10.5006C4.91023 10.5006 4.00797 10.2269 3.24055 9.71413C2.47312 9.20135 1.87498 8.47252 1.52177 7.61979C1.16856 6.76707 1.07614 5.82876 1.25621 4.92352C1.43627 4.01827 1.88073 3.18675 2.53337 2.53411C3.18602 1.88146 4.01754 1.437 4.92278 1.25694C5.82803 1.07688 6.76634 1.16929 7.61906 1.5225C8.47178 1.87571 9.20062 2.47385 9.7134 3.24128C10.2262 4.00871 10.4999 4.91096 10.4999 5.83394C10.4985 7.07119 10.0064 8.25737 9.1315 9.13224C8.25663 10.0071 7.07046 10.4992 5.83321 10.5006Z" fill="white" fill-opacity="0.5"/>
</g>
<defs>
<clipPath id="clip0_219_226">
<rect width="14" height="14" fill="white"/>
</clipPath>
</defs>
</svg>
