<svg width="25" height="24" viewBox="0 0 25 24" fill="none" xmlns="http://www.w3.org/2000/svg">
<g clip-path="url(#clip0_374_510)">
<path d="M1.5 4.75026H4.236C4.45064 5.53999 4.91917 6.23715 5.56933 6.73419C6.21948 7.23123 7.01512 7.50052 7.8335 7.50052C8.65188 7.50052 9.44752 7.23123 10.0977 6.73419C10.7478 6.23715 11.2164 5.53999 11.431 4.75026H23.5C23.7652 4.75026 24.0196 4.6449 24.2071 4.45737C24.3946 4.26983 24.5 4.01548 24.5 3.75026C24.5 3.48504 24.3946 3.23069 24.2071 3.04315C24.0196 2.85562 23.7652 2.75026 23.5 2.75026H11.431C11.2164 1.96053 10.7478 1.26336 10.0977 0.766328C9.44752 0.269291 8.65188 0 7.8335 0C7.01512 0 6.21948 0.269291 5.56933 0.766328C4.91917 1.26336 4.45064 1.96053 4.236 2.75026H1.5C1.23478 2.75026 0.98043 2.85562 0.792893 3.04315C0.605357 3.23069 0.5 3.48504 0.5 3.75026C0.5 4.01548 0.605357 4.26983 0.792893 4.45737C0.98043 4.6449 1.23478 4.75026 1.5 4.75026V4.75026ZM7.833 2.00026C8.17912 2.00026 8.51746 2.10289 8.80525 2.29519C9.09303 2.48748 9.31734 2.76079 9.44979 3.08056C9.58224 3.40033 9.6169 3.7522 9.54937 4.09167C9.48185 4.43113 9.31518 4.74295 9.07044 4.9877C8.82569 5.23244 8.51387 5.39911 8.17441 5.46663C7.83494 5.53416 7.48307 5.4995 7.1633 5.36705C6.84353 5.23459 6.57022 5.01029 6.37793 4.72251C6.18564 4.43472 6.083 4.09638 6.083 3.75026C6.08353 3.28629 6.26807 2.84148 6.59615 2.51341C6.92422 2.18533 7.36903 2.00079 7.833 2.00026V2.00026Z" fill="white"/>
<path d="M23.5 10.9991H20.764C20.5497 10.2092 20.0814 9.51177 19.4313 9.01452C18.7812 8.51728 17.9855 8.24786 17.167 8.24786C16.3485 8.24786 15.5528 8.51728 14.9027 9.01452C14.2526 9.51177 13.7843 10.2092 13.57 10.9991H1.5C1.23478 10.9991 0.98043 11.1044 0.792893 11.292C0.605357 11.4795 0.5 11.7339 0.5 11.9991C0.5 12.2643 0.605357 12.5187 0.792893 12.7062C0.98043 12.8937 1.23478 12.9991 1.5 12.9991H13.57C13.7843 13.789 14.2526 14.4864 14.9027 14.9837C15.5528 15.4809 16.3485 15.7503 17.167 15.7503C17.9855 15.7503 18.7812 15.4809 19.4313 14.9837C20.0814 14.4864 20.5497 13.789 20.764 12.9991H23.5C23.7652 12.9991 24.0196 12.8937 24.2071 12.7062C24.3946 12.5187 24.5 12.2643 24.5 11.9991C24.5 11.7339 24.3946 11.4795 24.2071 11.292C24.0196 11.1044 23.7652 10.9991 23.5 10.9991ZM17.167 13.7491C16.8209 13.7491 16.4825 13.6465 16.1948 13.4542C15.907 13.2619 15.6827 12.9886 15.5502 12.6688C15.4178 12.349 15.3831 11.9971 15.4506 11.6577C15.5181 11.3182 15.6848 11.0064 15.9296 10.7617C16.1743 10.5169 16.4861 10.3502 16.8256 10.2827C17.1651 10.2152 17.5169 10.2499 17.8367 10.3823C18.1565 10.5148 18.4298 10.7391 18.6221 11.0268C18.8144 11.3146 18.917 11.653 18.917 11.9991C18.9165 12.4631 18.7319 12.9079 18.4039 13.2359C18.0758 13.564 17.631 13.7486 17.167 13.7491V13.7491Z" fill="white"/>
<path d="M23.5 19.2503H11.431C11.2164 18.4606 10.7478 17.7634 10.0977 17.2664C9.44752 16.7694 8.65188 16.5001 7.8335 16.5001C7.01512 16.5001 6.21948 16.7694 5.56933 17.2664C4.91917 17.7634 4.45064 18.4606 4.236 19.2503H1.5C1.23478 19.2503 0.98043 19.3557 0.792893 19.5432C0.605357 19.7307 0.5 19.9851 0.5 20.2503C0.5 20.5155 0.605357 20.7699 0.792893 20.9574C0.98043 21.1449 1.23478 21.2503 1.5 21.2503H4.236C4.45064 22.04 4.91917 22.7372 5.56933 23.2342C6.21948 23.7313 7.01512 24.0006 7.8335 24.0006C8.65188 24.0006 9.44752 23.7313 10.0977 23.2342C10.7478 22.7372 11.2164 22.04 11.431 21.2503H23.5C23.7652 21.2503 24.0196 21.1449 24.2071 20.9574C24.3946 20.7699 24.5 20.5155 24.5 20.2503C24.5 19.9851 24.3946 19.7307 24.2071 19.5432C24.0196 19.3557 23.7652 19.2503 23.5 19.2503ZM7.833 22.0003C7.48688 22.0003 7.14854 21.8977 6.86075 21.7054C6.57297 21.5131 6.34866 21.2398 6.21621 20.92C6.08376 20.6002 6.0491 20.2484 6.11663 19.9089C6.18415 19.5694 6.35082 19.2576 6.59556 19.0129C6.8403 18.7681 7.15213 18.6015 7.49159 18.5339C7.83106 18.4664 8.18293 18.5011 8.5027 18.6335C8.82247 18.766 9.09578 18.9903 9.28807 19.2781C9.48036 19.5658 9.583 19.9042 9.583 20.2503C9.58221 20.7142 9.39758 21.1588 9.06956 21.4869C8.74154 21.8149 8.29689 21.9995 7.833 22.0003V22.0003Z" fill="white"/>
</g>
<defs>
<clipPath id="clip0_374_510">
<rect width="24" height="24" fill="white" transform="translate(0.5)"/>
</clipPath>
</defs>
</svg>
