<svg width="60" height="60" viewBox="0 0 60 60" fill="none" xmlns="http://www.w3.org/2000/svg">
<g clip-path="url(#clip0_272_438)">
<path d="M52.5 60.0015H47.5V47.394C47.498 45.434 46.7185 43.5548 45.3326 42.1689C43.9467 40.7829 42.0675 40.0035 40.1075 40.0015H19.8925C17.9325 40.0035 16.0533 40.7829 14.6674 42.1689C13.2815 43.5548 12.502 45.434 12.5 47.394V60.0015H7.5V47.394C7.50397 44.1085 8.81088 40.9587 11.1341 38.6355C13.4572 36.3123 16.607 35.0054 19.8925 35.0015H40.1075C43.393 35.0054 46.5428 36.3123 48.8659 38.6355C51.1891 40.9587 52.496 44.1085 52.5 47.394V60.0015Z" fill="white"/>
<path d="M30 29.9998C27.0333 29.9998 24.1332 29.1201 21.6665 27.4719C19.1997 25.8236 17.2771 23.481 16.1418 20.7401C15.0065 17.9992 14.7094 14.9832 15.2882 12.0735C15.867 9.16375 17.2956 6.49101 19.3934 4.39322C21.4912 2.29543 24.1639 0.866823 27.0737 0.288044C29.9834 -0.290734 32.9994 0.00631618 35.7403 1.14163C38.4812 2.27695 40.8238 4.19953 42.4721 6.66627C44.1203 9.13301 45 12.0331 45 14.9998C44.996 18.9769 43.4144 22.7899 40.6022 25.602C37.79 28.4142 33.977 29.9959 30 29.9998ZM30 4.99982C28.0222 4.99982 26.0888 5.58631 24.4443 6.68513C22.7998 7.78394 21.5181 9.34573 20.7612 11.173C20.0043 13.0003 19.8063 15.0109 20.1922 16.9507C20.578 18.8905 21.5304 20.6724 22.9289 22.0709C24.3275 23.4694 26.1093 24.4218 28.0491 24.8077C29.9889 25.1935 31.9996 24.9955 33.8268 24.2386C35.6541 23.4817 37.2159 22.2 38.3147 20.5555C39.4135 18.911 40 16.9776 40 14.9998C40 12.3477 38.9464 9.80412 37.0711 7.92876C35.1957 6.05339 32.6522 4.99982 30 4.99982Z" fill="white"/>
</g>
<defs>
<clipPath id="clip0_272_438">
<rect width="60" height="60" fill="white"/>
</clipPath>
</defs>
</svg>
